<svg width="45" height="45" xmlns="http://www.w3.org/2000/svg"><g transform="translate(1 1)" fill="none" fill-rule="evenodd"><circle stroke="#5E6B8D" fill="#5D6A8E" cx="21.5" cy="21.5" r="21.5"/><path d="M26.406 35.514h-7.334s.01-2.176 0-3.668c-5.02 1.081-6.421-2.751-6.421-2.751-.917-1.835-1.835-2.752-1.835-2.752-1.835-1.089 0-.916 0-.916 1.835 0 2.75 1.835 2.75 1.835 1.611 2.733 4.475 2.293 5.504 1.835 0-.917.401-2.304.916-2.752-4.006-.45-7.34-2.75-7.34-7.337s.92-5.503 1.837-6.422c-.185-.452-.953-2.124.028-4.586 0 0 1.803 0 3.638 2.751.909-.908 3.668-.916 4.586-.916.915 0 3.676.008 4.585.916C29.155 8 30.962 8 30.962 8c.981 2.462.213 4.134.028 4.586.916.917 1.835 1.835 1.835 6.422 0 4.586-3.33 6.885-7.338 7.337.517.448.917 2.026.917 2.752l.002 6.417z" fill="#F7F8F8" fill-rule="nonzero"/></g></svg>