<?xml version="1.0" encoding="utf-8"?>
<svg version="1.1" id="Layer_1" xmlns="http://www.w3.org/2000/svg" xmlns:xlink="http://www.w3.org/1999/xlink" x="0px" y="0px"
	 viewBox="0 0 642 231" preserveAspectRatio="xMinYMin meet" xml:space="preserve">
<style type="text/css">
	.st0{fill:#F0981B;}
	.st1{fill:#FFFFFF;}
</style>
<g>
	<g>
		<g>
			<path class="st0" d="M15.5,187.1c5.4,12.3,18.8,28,21,29.7c-3.1,5.6-8.4,6.8-8.4,6.8S14.8,201.9,15.5,187.1z"/>
		</g>
		<path class="st0" d="M7.7,190.4c4.3,12.7,17.2,30.1,19.2,32.1c-3.6,5.3-9.9,5.4-9.9,5.4S5.8,205,7.7,190.4z"/>
		<path class="st0" d="M296.5,1c0,0-79.6,20.1-93.5,44c-33.3-5.9-89.8,3-89.8,3s-5.6-36.7-1.4-47C22.5,44,4.1,136.4,1,186.4l0,0
			c0,0,25.5-12.2,50.1,2c1-0.7-16.6,31.8-34.2,39.4c-0.2,0.1,1.1,0.3,0.9,0.4c18-0.7,56.8-17,74.7-31.2
			c59.2-47.1,51.1-79.9,51.1-79.9s-27.3,43.6-48.9,16.1c-17-21.6,34-70.9,119.3-55.9c50.8,8.9,82.5,31,82.5,31L249,56L296.5,1z
			 M50.1,164.9c-3.6,4.4-8.3,5-12.2,2.8c-5.3-3,4.1-24.5,17.5-25.5C55.4,142.1,55.2,158.7,50.1,164.9z M86.1,112.4
			c0,0,3.9-23.3-21-41.6C92.6,80.3,95.2,95.4,86.1,112.4z M94.2,102.5c0,0,3.3-19.5-17.5-34.8C99.6,75.6,101.8,88.3,94.2,102.5z
			 M101.2,92.6c0,0,2.6-15.7-14.1-28C105.6,71,107.3,81.2,101.2,92.6z M107.2,83.4c0,0,2-11.9-10.7-21.2
			C110.5,67,111.9,74.8,107.2,83.4z"/>
	</g>
	<path class="st1" d="M156.8,229v-65.5c0-6.4,0.3-11.4,1-15c0.6-3.6,1.7-6.8,3.2-9.8c3.1-6.4,7.7-11.5,13.8-15.1
		c6-3.6,12.8-5.4,20.2-5.4c11,0,20.1,3.7,27.3,11.1c7.2,7.4,10.7,16.7,10.7,28.1c0,5.1-0.9,10.1-2.7,14.8c-1.8,4.7-4.3,8.9-7.7,12.5
		c-3.4,3.8-7.5,6.8-12.2,8.8c-4.7,2.1-9.7,3.1-14.8,3.1c-3.8,0-7.4-0.4-10.8-1.3c-3.4-0.8-6.7-2.1-9.8-3.9v-14.6
		c3.1,2.4,6.2,4.1,9.4,5.3c3.2,1.1,6.4,1.7,9.7,1.7c7.3,0,13.2-2.5,17.9-7.5c4.7-5,7-11.4,7-19.2c0-7.6-2.3-13.9-6.9-18.8
		c-4.6-4.9-10.5-7.3-17.6-7.3c-7.2,0-13,2.5-17.5,7.4s-6.7,11.3-6.7,19.3V229H156.8z"/>
	<path class="st1" d="M301.9,195.3v-37.8c0-7.9-2.2-14.4-6.7-19.3c-4.5-4.9-10.3-7.4-17.5-7.4c-7.1,0-12.9,2.4-17.5,7.3
		c-4.6,4.9-6.8,11.1-6.8,18.8c0,7.8,2.3,14.2,7,19.2c4.7,5,10.7,7.5,17.9,7.5c3.3,0,6.5-0.6,9.6-1.7s6.2-2.9,9.4-5.3v14.6
		c-3.1,1.8-6.3,3.1-9.8,3.9c-3.4,0.8-7,1.3-10.8,1.3c-3.6,0-7.2-0.6-10.7-1.7s-6.8-2.7-9.7-4.7c-5.5-3.8-9.6-8.5-12.5-14.1
		s-4.3-11.9-4.3-18.8c0-11.3,3.6-20.7,10.7-28.1c7.2-7.4,16.2-11.1,27.3-11.1c7.3,0,13.9,1.8,19.9,5.5s10.7,8.7,13.9,15.1
		c1.5,2.9,2.6,6,3.2,9.5c0.6,3.4,1,8.5,1,15.3v31.8h-13.6V195.3z"/>
	<path class="st1" d="M387.2,119.6v41.3c0,9.7-2.1,17.4-6.3,23.3c-4.2,5.8-10.6,9.8-19.2,11.9V229h-13.6v-32.9
		c-8.5-2.1-14.9-6.1-19.1-11.9s-6.3-13.6-6.3-23.3v-41.3h13.5v43.8c0,6,1.8,10.8,5.3,14.6s8,5.6,13.5,5.6s10-1.9,13.5-5.6
		c3.5-3.8,5.2-8.6,5.2-14.6v-43.8L387.2,119.6L387.2,119.6z"/>
	<path class="st1" d="M456.9,195.3v-37.8c0-7.9-2.2-14.4-6.7-19.3c-4.5-4.9-10.3-7.4-17.5-7.4c-7.1,0-12.9,2.4-17.5,7.3
		c-4.6,4.9-6.8,11.1-6.8,18.8c0,7.8,2.3,14.2,7,19.2c4.7,5,10.7,7.5,17.9,7.5c3.3,0,6.5-0.6,9.6-1.7c3.1-1.1,6.2-2.9,9.4-5.3v14.6
		c-3.1,1.8-6.3,3.1-9.8,3.9c-3.4,0.8-7,1.3-10.8,1.3c-3.6,0-7.2-0.6-10.7-1.7s-6.8-2.7-9.7-4.7c-5.5-3.8-9.6-8.5-12.5-14.1
		s-4.3-11.9-4.3-18.8c0-11.3,3.6-20.7,10.7-28.1c7.2-7.4,16.2-11.1,27.3-11.1c7.3,0,13.9,1.8,19.9,5.5s10.7,8.7,13.9,15.1
		c1.5,2.9,2.6,6,3.2,9.5c0.6,3.4,1,8.5,1,15.3v31.8h-13.6V195.3z"/>
	<path class="st1" d="M479.9,195.3v-75.8h12.5v11.2c2.3-4.4,5.5-7.6,9.6-9.6s9.5-3,16.5-3h3.6v13.1H520c-9.3,0-16.1,2.2-20.2,6.6
		c-4.1,4.4-6.2,11.6-6.2,21.6v35.8h-13.7V195.3z"/>
	<path class="st1" d="M584.2,195.3v-37.8c0-7.9-2.2-14.4-6.7-19.3c-4.5-4.9-10.3-7.4-17.5-7.4c-7.1,0-12.9,2.4-17.5,7.3
		c-4.6,4.9-6.8,11.1-6.8,18.8c0,7.8,2.3,14.2,7,19.2c4.7,5,10.7,7.5,17.9,7.5c3.3,0,6.5-0.6,9.6-1.7s6.2-2.9,9.4-5.3v14.6
		c-3.1,1.8-6.3,3.1-9.8,3.9c-3.4,0.8-7,1.3-10.8,1.3c-3.6,0-7.2-0.6-10.7-1.7s-6.8-2.7-9.7-4.7c-5.5-3.8-9.6-8.5-12.5-14.1
		s-4.3-11.9-4.3-18.8c0-11.3,3.6-20.7,10.7-28.1c7.2-7.4,16.2-11.1,27.3-11.1c7.3,0,13.9,1.8,19.9,5.5s10.7,8.7,13.9,15.1
		c1.5,2.9,2.6,6,3.2,9.5c0.6,3.4,1,8.5,1,15.3v31.8h-13.6V195.3z"/>
	<g>
		<path class="st1" d="M601.6,101c0-0.4,0.1-0.8,0.2-1.3c0.1-0.4,0.2-0.8,0.3-1.3c0.1-0.4,0.3-0.9,0.4-1.3c0.5-1.6,1.3-3.1,2.3-4.6
			s2.3-2.9,3.9-4.2c1.5-1.3,3.3-2.4,5.3-3c2-0.7,4.2-1,6.6-1c2.7,0,5.1,0.5,7.3,1.4c2.2,1,4.2,2.4,5.9,4.3c1.8,1.9,3.1,3.9,4,5.9
			c0.9,2.1,1.4,4.2,1.4,6.5v0.1v0.1c-0.1,3-0.6,5.6-1.6,7.9c-1,2.3-2.4,4.3-4.2,5.9c-1.8,1.6-3.8,2.8-5.9,3.6
			c-2.1,0.8-4.2,1.2-6.5,1.2h-0.1h-0.1h-0.1h-0.1h-0.1c-0.1,0-0.1,0-0.1,0h-0.1h-0.1c-3.1-0.1-5.7-0.6-8-1.6
			c-2.3-0.9-4.2-2.3-5.7-4.2c-1.5-1.8-2.7-3.7-3.5-5.7s-1.3-4.1-1.4-6.3c0-0.1,0-0.1,0-0.2c0,0,0-0.1,0-0.2v-0.1c0-0.1,0-0.1,0-0.1
			c0-0.1,0-0.2,0-0.3s0-0.2,0-0.3v-0.1C601.5,101.8,601.6,101.4,601.6,101z M606.8,108.4c0.6,1.8,1.6,3.4,2.8,4.9
			c1.3,1.4,2.8,2.5,4.6,3.3c1.8,0.7,3.9,1.1,6.3,1.1c0.4,0,0.7,0,1.1-0.1c0.4,0,0.8-0.1,1.2-0.2c0.4-0.1,0.8-0.2,1.2-0.3
			s0.8-0.2,1.2-0.4c1.2-0.4,2.3-1,3.3-1.7c1.1-0.8,2.1-1.7,3-2.8c1-1.1,1.7-2.5,2.3-4.1c0.5-1.6,0.8-3.5,0.9-5.6
			c0-1.9-0.3-3.7-1-5.4s-1.7-3.3-3-4.8s-2.9-2.6-4.6-3.4c-1.7-0.8-3.6-1.1-5.7-1.1h-0.1c-0.1,0-0.1,0-0.1,0c-0.1,0-0.1,0-0.2,0
			c0,0-0.1,0-0.2,0h-0.1c-0.1,0-0.1,0-0.1,0c-0.1,0-0.1,0.1-0.2,0.1c0,0-0.1,0-0.2,0c-1.7,0.1-3.3,0.5-4.9,1.2
			c-1.6,0.7-3,1.6-4.5,2.9c-1.4,1.2-2.5,2.7-3.2,4.5c-0.7,1.7-1.1,3.8-1.1,6v-0.1C605.9,104.7,606.2,106.7,606.8,108.4z M613,92.2
			h8.7c1.7,0.2,3,0.4,4.1,0.8c1,0.4,1.7,0.9,2,1.5c0.4,0.6,0.6,1.3,0.8,2s0.3,1.4,0.3,2.2s-0.1,1.5-0.3,2.2c-0.2,0.6-0.5,1.2-1,1.7
			c-0.4,0.5-1,0.8-1.7,1.1s-1.5,0.5-2.5,0.6l5.9,9h-4l-5.5-9.1h-3.2v9.1H613V92.2z M622.9,101.2c0.6-0.1,1-0.4,1.4-0.7
			c0.3-0.3,0.6-0.6,0.8-1s0.3-0.8,0.3-1.3v-0.1V98c0-0.4-0.1-0.7-0.3-1.1c-0.2-0.3-0.4-0.7-0.8-1c-0.3-0.3-0.8-0.5-1.4-0.7
			c-0.6-0.2-1.3-0.3-2.2-0.3l-4-0.1v6.3h4.3C621.7,101.4,622.4,101.4,622.9,101.2z"/>
	</g>
</g>
</svg>
